<svg class="main-svg" xmlns="http://www.w3.org/2000/svg" xmlns:xlink="http://www.w3.org/1999/xlink" width="700" height="500" style="" viewBox="0 0 700 500"><rect x="0" y="0" width="700" height="500" style="fill: rgb(255, 255, 255); fill-opacity: 1;"/><defs id="defs-0880ef"><g class="clips"><clipPath id="clip0880efxyplot" class="plotclip"><rect width="540" height="292"/></clipPath><clipPath class="axesclip" id="clip0880efx"><rect x="80" y="0" width="540" height="500"/></clipPath><clipPath class="axesclip" id="clip0880efy"><rect x="0" y="100" width="700" height="292"/></clipPath><clipPath class="axesclip" id="clip0880efxy"><rect x="80" y="100" width="540" height="292"/></clipPath></g><g class="gradients"/><g class="patterns"/></defs><g class="bglayer"><rect class="bg" x="80" y="100" width="540" height="292" style="fill: rgb(242, 242, 242); fill-opacity: 1; stroke-width: 0;"/></g><g class="layer-below"><g class="imagelayer"/><g class="shapelayer"/></g><g class="cartesianlayer"><g class="subplot xy"><g class="layer-subplot"><g class="shapelayer"/><g class="imagelayer"/></g><g class="minor-gridlayer"><g class="x"/><g class="y"/></g><g class="gridlayer"><g class="x"><path class="xgrid crisp" transform="translate(94.21000000000001,0)" d="M0,100v292" style="stroke: rgb(255, 255, 255); stroke-opacity: 1; stroke-width: 1px;"/><path class="xgrid crisp" transform="translate(108.42,0)" d="M0,100v292" style="stroke: rgb(255, 255, 255); stroke-opacity: 1; stroke-width: 1px;"/><path class="xgrid crisp" transform="translate(122.63,0)" d="M0,100v292" style="stroke: rgb(255, 255, 255); stroke-opacity: 1; stroke-width: 1px;"/><path class="xgrid crisp" transform="translate(136.84,0)" d="M0,100v292" style="stroke: rgb(255, 255, 255); stroke-opacity: 1; stroke-width: 1px;"/><path class="xgrid crisp" transform="translate(151.05,0)" d="M0,100v292" style="stroke: rgb(255, 255, 255); stroke-opacity: 1; stroke-width: 1px;"/><path class="xgrid crisp" transform="translate(165.26,0)" d="M0,100v292" style="stroke: rgb(255, 255, 255); stroke-opacity: 1; stroke-width: 1px;"/><path class="xgrid crisp" transform="translate(179.47,0)" d="M0,100v292" style="stroke: rgb(255, 255, 255); stroke-opacity: 1; stroke-width: 1px;"/><path class="xgrid crisp" transform="translate(193.68,0)" d="M0,100v292" style="stroke: rgb(255, 255, 255); stroke-opacity: 1; stroke-width: 1px;"/><path class="xgrid crisp" transform="translate(207.89,0)" d="M0,100v292" style="stroke: rgb(255, 255, 255); stroke-opacity: 1; stroke-width: 1px;"/><path class="xgrid crisp" transform="translate(222.11,0)" d="M0,100v292" style="stroke: rgb(255, 255, 255); stroke-opacity: 1; stroke-width: 1px;"/><path class="xgrid crisp" transform="translate(236.32,0)" d="M0,100v292" style="stroke: rgb(255, 255, 255); stroke-opacity: 1; stroke-width: 1px;"/><path class="xgrid crisp" transform="translate(250.53,0)" d="M0,100v292" style="stroke: rgb(255, 255, 255); stroke-opacity: 1; stroke-width: 1px;"/><path class="xgrid crisp" transform="translate(264.74,0)" d="M0,100v292" style="stroke: rgb(255, 255, 255); stroke-opacity: 1; stroke-width: 1px;"/><path class="xgrid crisp" transform="translate(278.95,0)" d="M0,100v292" style="stroke: rgb(255, 255, 255); stroke-opacity: 1; stroke-width: 1px;"/><path class="xgrid crisp" transform="translate(293.15999999999997,0)" d="M0,100v292" style="stroke: rgb(255, 255, 255); stroke-opacity: 1; stroke-width: 1px;"/><path class="xgrid crisp" transform="translate(307.37,0)" d="M0,100v292" style="stroke: rgb(255, 255, 255); stroke-opacity: 1; stroke-width: 1px;"/><path class="xgrid crisp" transform="translate(321.58000000000004,0)" d="M0,100v292" style="stroke: rgb(255, 255, 255); stroke-opacity: 1; stroke-width: 1px;"/><path class="xgrid crisp" transform="translate(335.78999999999996,0)" d="M0,100v292" style="stroke: rgb(255, 255, 255); stroke-opacity: 1; stroke-width: 1px;"/><path class="xgrid crisp" transform="translate(350,0)" d="M0,100v292" style="stroke: rgb(255, 255, 255); stroke-opacity: 1; stroke-width: 1px;"/><path class="xgrid crisp" transform="translate(364.21,0)" d="M0,100v292" style="stroke: rgb(255, 255, 255); stroke-opacity: 1; stroke-width: 1px;"/><path class="xgrid crisp" transform="translate(378.42,0)" d="M0,100v292" style="stroke: rgb(255, 255, 255); stroke-opacity: 1; stroke-width: 1px;"/><path class="xgrid crisp" transform="translate(392.63,0)" d="M0,100v292" style="stroke: rgb(255, 255, 255); stroke-opacity: 1; stroke-width: 1px;"/><path class="xgrid crisp" transform="translate(406.84,0)" d="M0,100v292" style="stroke: rgb(255, 255, 255); stroke-opacity: 1; stroke-width: 1px;"/><path class="xgrid crisp" transform="translate(421.05,0)" d="M0,100v292" style="stroke: rgb(255, 255, 255); stroke-opacity: 1; stroke-width: 1px;"/><path class="xgrid crisp" transform="translate(435.26,0)" d="M0,100v292" style="stroke: rgb(255, 255, 255); stroke-opacity: 1; stroke-width: 1px;"/><path class="xgrid crisp" transform="translate(449.47,0)" d="M0,100v292" style="stroke: rgb(255, 255, 255); stroke-opacity: 1; stroke-width: 1px;"/><path class="xgrid crisp" transform="translate(463.68,0)" d="M0,100v292" style="stroke: rgb(255, 255, 255); stroke-opacity: 1; stroke-width: 1px;"/><path class="xgrid crisp" transform="translate(477.89,0)" d="M0,100v292" style="stroke: rgb(255, 255, 255); stroke-opacity: 1; stroke-width: 1px;"/><path class="xgrid crisp" transform="translate(492.11,0)" d="M0,100v292" style="stroke: rgb(255, 255, 255); stroke-opacity: 1; stroke-width: 1px;"/><path class="xgrid crisp" transform="translate(506.32,0)" d="M0,100v292" style="stroke: rgb(255, 255, 255); stroke-opacity: 1; stroke-width: 1px;"/><path class="xgrid crisp" transform="translate(520.53,0)" d="M0,100v292" style="stroke: rgb(255, 255, 255); stroke-opacity: 1; stroke-width: 1px;"/><path class="xgrid crisp" transform="translate(534.74,0)" d="M0,100v292" style="stroke: rgb(255, 255, 255); stroke-opacity: 1; stroke-width: 1px;"/><path class="xgrid crisp" transform="translate(548.95,0)" d="M0,100v292" style="stroke: rgb(255, 255, 255); stroke-opacity: 1; stroke-width: 1px;"/><path class="xgrid crisp" transform="translate(563.1600000000001,0)" d="M0,100v292" style="stroke: rgb(255, 255, 255); stroke-opacity: 1; stroke-width: 1px;"/><path class="xgrid crisp" transform="translate(577.37,0)" d="M0,100v292" style="stroke: rgb(255, 255, 255); stroke-opacity: 1; stroke-width: 1px;"/><path class="xgrid crisp" transform="translate(591.5799999999999,0)" d="M0,100v292" style="stroke: rgb(255, 255, 255); stroke-opacity: 1; stroke-width: 1px;"/><path class="xgrid crisp" transform="translate(605.79,0)" d="M0,100v292" style="stroke: rgb(255, 255, 255); stroke-opacity: 1; stroke-width: 1px;"/></g><g class="y"><path class="ygrid crisp" transform="translate(0,331.9)" d="M80,0h540" style="stroke: rgb(255, 255, 255); stroke-opacity: 1; stroke-width: 1px;"/><path class="ygrid crisp" transform="translate(0,280.77)" d="M80,0h540" style="stroke: rgb(255, 255, 255); stroke-opacity: 1; stroke-width: 1px;"/><path class="ygrid crisp" transform="translate(0,229.64)" d="M80,0h540" style="stroke: rgb(255, 255, 255); stroke-opacity: 1; stroke-width: 1px;"/><path class="ygrid crisp" transform="translate(0,178.51)" d="M80,0h540" style="stroke: rgb(255, 255, 255); stroke-opacity: 1; stroke-width: 1px;"/><path class="ygrid crisp" transform="translate(0,127.38)" d="M80,0h540" style="stroke: rgb(255, 255, 255); stroke-opacity: 1; stroke-width: 1px;"/></g></g><g class="zerolinelayer"><path class="yzl zl crisp" transform="translate(0,383.02)" d="M80,0h540" style="stroke: rgb(255, 255, 255); stroke-opacity: 1; stroke-width: 2px;"/></g><g class="layer-between"><g class="shapelayer"/><g class="imagelayer"/></g><path class="xlines-below"/><path class="ylines-below"/><g class="overlines-below"/><g class="xaxislayer-below"/><g class="yaxislayer-below"/><g class="overaxes-below"/><g class="overplot"><g class="xy" transform="translate(80,100)" clip-path="url(#clip0880efxyplot)"><g class="scatterlayer mlayer"><g class="trace scatter trace14b09b" style="stroke-miterlimit: 2; opacity: 1;"><g class="fills"/><g class="errorbars"/><g class="lines"><path class="js-line" d="M0,153.67L3.55,129.89L7.11,131.17L10.66,102.03L14.21,206.33L17.76,184.35L21.32,136.8L24.87,140.63L28.42,164.92L31.97,129.89L35.53,239.56L39.08,171.31L42.63,188.69L46.18,119.67L49.74,121.46L53.29,166.71L56.84,14.6L60.39,165.68L63.95,226.27L67.5,269.22L71.05,211.44L74.61,153.16L78.16,109.44L81.71,150.86L85.26,60.1L88.82,136.54L92.37,242.38L95.92,239.82L99.47,151.11L103.03,162.62L106.58,124.78L110.13,142.17L113.68,175.91L117.24,97.17L120.79,102.03L124.34,76.21L127.89,107.91L131.45,227.81L135,252.6L138.55,165.43L142.11,125.55L145.66,171.82L149.21,181.79L152.76,156.74L156.32,105.86L159.87,227.81L163.42,256.44L166.97,174.89L170.53,121.46L174.08,94.62L177.63,47.58L181.18,120.95L184.74,228.06L188.29,206.08L191.84,255.16L195.39,167.22L198.95,98.96L202.5,130.15L206.05,174.89L209.61,187.16L213.16,231.64L216.71,159.29L220.26,137.82L223.82,156.99L227.37,154.44L230.92,230.36L234.47,258.99L238.03,180.26L241.58,140.89L245.13,108.68L248.68,158.27L252.24,173.61L255.79,135.77L259.34,219.88L262.89,258.74L266.45,174.38L270,117.62L273.55,147.02L277.11,159.29L280.66,156.48L284.21,229.08L287.76,252.35L291.32,184.86L294.87,140.89L298.42,153.16L301.97,160.06L305.53,241.61L309.08,183.07L312.63,246.47L316.18,265.13L319.74,174.12L323.29,116.86L326.84,105.61L330.39,213.23L333.95,221.41L337.5,161.85L341.05,118.14L344.61,161.08L348.16,146.77L351.71,99.47L355.26,219.11L358.82,228.32L362.37,178.21L369.47,49.11L373.03,75.7L376.58,119.92L380.13,130.66L383.68,211.96L387.24,251.84L394.34,122.23L397.89,124.53L401.45,129.13L405,237.01L408.55,144.98L412.11,220.9L415.66,248.26L419.21,160.32L422.76,156.99L426.32,94.62L429.87,151.11L433.42,130.15L436.97,243.91L440.53,151.37L444.08,156.74L447.63,109.95L451.18,131.43L454.74,230.36L458.29,251.32L461.84,166.2L465.39,107.14L468.95,104.07L472.5,90.27L476.05,248.26L479.61,142.42L483.16,197.64L486.71,227.29L490.26,150.6L493.82,39.14L497.37,106.63L500.92,46.81L504.47,85.41L508.03,209.4L511.58,165.17L515.13,151.37L518.68,141.65L522.24,74.68L525.79,116.35L529.34,92.83L532.89,209.4L536.45,258.99L540,163.13" style="vector-effect: none; fill: none; stroke: rgb(255, 87, 51); stroke-opacity: 1; stroke-width: 2px; opacity: 1;"/></g><g class="points"/><g class="text"/></g></g></g></g><path class="xlines-above crisp" d="M0,0" style="fill: none;"/><path class="ylines-above crisp" d="M0,0" style="fill: none;"/><g class="overlines-above"/><g class="xaxislayer-above"><g class="xtick"><text text-anchor="start" x="0" y="405" transform="translate(80,0) rotate(90,0,399)" style="font-family: 'Times New Roman'; font-size: 12px; fill: rgb(42, 63, 95); fill-opacity: 1; white-space: pre; opacity: 1;">5/1/2024</text></g><g class="xtick"><text text-anchor="start" x="0" y="405" transform="translate(94.21000000000001,0) rotate(90,0,399)" style="font-family: 'Times New Roman'; font-size: 12px; fill: rgb(42, 63, 95); fill-opacity: 1; white-space: pre; opacity: 1;">5/13/2024</text></g><g class="xtick"><text text-anchor="start" x="0" y="405" transform="translate(108.42,0) rotate(90,0,399)" style="font-family: 'Times New Roman'; font-size: 12px; fill: rgb(42, 63, 95); fill-opacity: 1; white-space: pre; opacity: 1;">5/17/2024</text></g><g class="xtick"><text text-anchor="start" x="0" y="405" transform="translate(122.63,0) rotate(90,0,399)" style="font-family: 'Times New Roman'; font-size: 12px; fill: rgb(42, 63, 95); fill-opacity: 1; white-space: pre; opacity: 1;">5/20/2024</text></g><g class="xtick"><text text-anchor="start" x="0" y="405" transform="translate(136.84,0) rotate(90,0,399)" style="font-family: 'Times New Roman'; font-size: 12px; fill: rgb(42, 63, 95); fill-opacity: 1; white-space: pre; opacity: 1;">5/24/2024</text></g><g class="xtick"><text text-anchor="start" x="0" y="405" transform="translate(151.05,0) rotate(90,0,399)" style="font-family: 'Times New Roman'; font-size: 12px; fill: rgb(42, 63, 95); fill-opacity: 1; white-space: pre; opacity: 1;">5/28/2024</text></g><g class="xtick"><text text-anchor="start" x="0" y="405" transform="translate(165.26,0) rotate(90,0,399)" style="font-family: 'Times New Roman'; font-size: 12px; fill: rgb(42, 63, 95); fill-opacity: 1; white-space: pre; opacity: 1;">5/31/2024</text></g><g class="xtick"><text text-anchor="start" x="0" y="405" transform="translate(179.47,0) rotate(90,0,399)" style="font-family: 'Times New Roman'; font-size: 12px; fill: rgb(42, 63, 95); fill-opacity: 1; white-space: pre; opacity: 1;">5/7/2024</text></g><g class="xtick"><text text-anchor="start" x="0" y="405" transform="translate(193.68,0) rotate(90,0,399)" style="font-family: 'Times New Roman'; font-size: 12px; fill: rgb(42, 63, 95); fill-opacity: 1; white-space: pre; opacity: 1;">6/10/2024</text></g><g class="xtick"><text text-anchor="start" x="0" y="405" transform="translate(207.89,0) rotate(90,0,399)" style="font-family: 'Times New Roman'; font-size: 12px; fill: rgb(42, 63, 95); fill-opacity: 1; white-space: pre; opacity: 1;">6/14/2024</text></g><g class="xtick"><text text-anchor="start" x="0" y="405" transform="translate(222.11,0) rotate(90,0,399)" style="font-family: 'Times New Roman'; font-size: 12px; fill: rgb(42, 63, 95); fill-opacity: 1; white-space: pre; opacity: 1;">6/18/2024</text></g><g class="xtick"><text text-anchor="start" x="0" y="405" transform="translate(236.32,0) rotate(90,0,399)" style="font-family: 'Times New Roman'; font-size: 12px; fill: rgb(42, 63, 95); fill-opacity: 1; white-space: pre; opacity: 1;">6/21/2024</text></g><g class="xtick"><text text-anchor="start" x="0" y="405" transform="translate(250.53,0) rotate(90,0,399)" style="font-family: 'Times New Roman'; font-size: 12px; fill: rgb(42, 63, 95); fill-opacity: 1; white-space: pre; opacity: 1;">6/25/2024</text></g><g class="xtick"><text text-anchor="start" x="0" y="405" transform="translate(264.74,0) rotate(90,0,399)" style="font-family: 'Times New Roman'; font-size: 12px; fill: rgb(42, 63, 95); fill-opacity: 1; white-space: pre; opacity: 1;">6/29/2024</text></g><g class="xtick"><text text-anchor="start" x="0" y="405" transform="translate(278.95,0) rotate(90,0,399)" style="font-family: 'Times New Roman'; font-size: 12px; fill: rgb(42, 63, 95); fill-opacity: 1; white-space: pre; opacity: 1;">6/5/2024</text></g><g class="xtick"><text text-anchor="start" x="0" y="405" transform="translate(293.15999999999997,0) rotate(90,0,399)" style="font-family: 'Times New Roman'; font-size: 12px; fill: rgb(42, 63, 95); fill-opacity: 1; white-space: pre; opacity: 1;">6/9/2024</text></g><g class="xtick"><text text-anchor="start" x="0" y="405" transform="translate(307.37,0) rotate(90,0,399)" style="font-family: 'Times New Roman'; font-size: 12px; fill: rgb(42, 63, 95); fill-opacity: 1; white-space: pre; opacity: 1;">7/12/2024</text></g><g class="xtick"><text text-anchor="start" x="0" y="405" transform="translate(321.58000000000004,0) rotate(90,0,399)" style="font-family: 'Times New Roman'; font-size: 12px; fill: rgb(42, 63, 95); fill-opacity: 1; white-space: pre; opacity: 1;">7/16/2024</text></g><g class="xtick"><text text-anchor="start" x="0" y="405" transform="translate(335.78999999999996,0) rotate(90,0,399)" style="font-family: 'Times New Roman'; font-size: 12px; fill: rgb(42, 63, 95); fill-opacity: 1; white-space: pre; opacity: 1;">7/2/2024</text></g><g class="xtick"><text text-anchor="start" x="0" y="405" transform="translate(350,0) rotate(90,0,399)" style="font-family: 'Times New Roman'; font-size: 12px; fill: rgb(42, 63, 95); fill-opacity: 1; white-space: pre; opacity: 1;">7/23/2024</text></g><g class="xtick"><text text-anchor="start" x="0" y="405" transform="translate(364.21,0) rotate(90,0,399)" style="font-family: 'Times New Roman'; font-size: 12px; fill: rgb(42, 63, 95); fill-opacity: 1; white-space: pre; opacity: 1;">7/27/2024</text></g><g class="xtick"><text text-anchor="start" x="0" y="405" transform="translate(378.42,0) rotate(90,0,399)" style="font-family: 'Times New Roman'; font-size: 12px; fill: rgb(42, 63, 95); fill-opacity: 1; white-space: pre; opacity: 1;">7/30/2024</text></g><g class="xtick"><text text-anchor="start" x="0" y="405" transform="translate(392.63,0) rotate(90,0,399)" style="font-family: 'Times New Roman'; font-size: 12px; fill: rgb(42, 63, 95); fill-opacity: 1; white-space: pre; opacity: 1;">7/6/2024</text></g><g class="xtick"><text text-anchor="start" x="0" y="405" transform="translate(406.84,0) rotate(90,0,399)" style="font-family: 'Times New Roman'; font-size: 12px; fill: rgb(42, 63, 95); fill-opacity: 1; white-space: pre; opacity: 1;">8/1/2024</text></g><g class="xtick"><text text-anchor="start" x="0" y="405" transform="translate(421.05,0) rotate(90,0,399)" style="font-family: 'Times New Roman'; font-size: 12px; fill: rgb(42, 63, 95); fill-opacity: 1; white-space: pre; opacity: 1;">8/13/2024</text></g><g class="xtick"><text text-anchor="start" x="0" y="405" transform="translate(435.26,0) rotate(90,0,399)" style="font-family: 'Times New Roman'; font-size: 12px; fill: rgb(42, 63, 95); fill-opacity: 1; white-space: pre; opacity: 1;">8/17/2024</text></g><g class="xtick"><text text-anchor="start" x="0" y="405" transform="translate(449.47,0) rotate(90,0,399)" style="font-family: 'Times New Roman'; font-size: 12px; fill: rgb(42, 63, 95); fill-opacity: 1; white-space: pre; opacity: 1;">8/20/2024</text></g><g class="xtick"><text text-anchor="start" x="0" y="405" transform="translate(463.68,0) rotate(90,0,399)" style="font-family: 'Times New Roman'; font-size: 12px; fill: rgb(42, 63, 95); fill-opacity: 1; white-space: pre; opacity: 1;">8/24/2024</text></g><g class="xtick"><text text-anchor="start" x="0" y="405" transform="translate(477.89,0) rotate(90,0,399)" style="font-family: 'Times New Roman'; font-size: 12px; fill: rgb(42, 63, 95); fill-opacity: 1; white-space: pre; opacity: 1;">8/28/2024</text></g><g class="xtick"><text text-anchor="start" x="0" y="405" transform="translate(492.11,0) rotate(90,0,399)" style="font-family: 'Times New Roman'; font-size: 12px; fill: rgb(42, 63, 95); fill-opacity: 1; white-space: pre; opacity: 1;">8/31/2024</text></g><g class="xtick"><text text-anchor="start" x="0" y="405" transform="translate(506.32,0) rotate(90,0,399)" style="font-family: 'Times New Roman'; font-size: 12px; fill: rgb(42, 63, 95); fill-opacity: 1; white-space: pre; opacity: 1;">8/7/2024</text></g><g class="xtick"><text text-anchor="start" x="0" y="405" transform="translate(520.53,0) rotate(90,0,399)" style="font-family: 'Times New Roman'; font-size: 12px; fill: rgb(42, 63, 95); fill-opacity: 1; white-space: pre; opacity: 1;">9/10/2024</text></g><g class="xtick"><text text-anchor="start" x="0" y="405" transform="translate(534.74,0) rotate(90,0,399)" style="font-family: 'Times New Roman'; font-size: 12px; fill: rgb(42, 63, 95); fill-opacity: 1; white-space: pre; opacity: 1;">9/14/2024</text></g><g class="xtick"><text text-anchor="start" x="0" y="405" transform="translate(548.95,0) rotate(90,0,399)" style="font-family: 'Times New Roman'; font-size: 12px; fill: rgb(42, 63, 95); fill-opacity: 1; white-space: pre; opacity: 1;">9/18/2024</text></g><g class="xtick"><text text-anchor="start" x="0" y="405" transform="translate(563.1600000000001,0) rotate(90,0,399)" style="font-family: 'Times New Roman'; font-size: 12px; fill: rgb(42, 63, 95); fill-opacity: 1; white-space: pre; opacity: 1;">9/21/2024</text></g><g class="xtick"><text text-anchor="start" x="0" y="405" transform="translate(577.37,0) rotate(90,0,399)" style="font-family: 'Times New Roman'; font-size: 12px; fill: rgb(42, 63, 95); fill-opacity: 1; white-space: pre; opacity: 1;">9/25/2024</text></g><g class="xtick"><text text-anchor="start" x="0" y="405" transform="translate(591.5799999999999,0) rotate(90,0,399)" style="font-family: 'Times New Roman'; font-size: 12px; fill: rgb(42, 63, 95); fill-opacity: 1; white-space: pre; opacity: 1;">9/29/2024</text></g><g class="xtick"><text text-anchor="start" x="0" y="405" transform="translate(605.79,0) rotate(90,0,399)" style="font-family: 'Times New Roman'; font-size: 12px; fill: rgb(42, 63, 95); fill-opacity: 1; white-space: pre; opacity: 1;">9/5/2024</text></g><g class="xtick"><text text-anchor="start" x="0" y="405" transform="translate(620,0) rotate(90,0,399)" style="font-family: 'Times New Roman'; font-size: 12px; fill: rgb(42, 63, 95); fill-opacity: 1; white-space: pre; opacity: 1;">9/9/2024</text></g></g><g class="yaxislayer-above"><g class="ytick"><text text-anchor="end" x="79" y="4.199999999999999" transform="translate(0,383.02)" style="font-family: 'Times New Roman'; font-size: 12px; fill: rgb(42, 63, 95); fill-opacity: 1; white-space: pre; opacity: 1;">0</text></g><g class="ytick"><text text-anchor="end" x="79" y="4.199999999999999" style="font-family: 'Times New Roman'; font-size: 12px; fill: rgb(42, 63, 95); fill-opacity: 1; white-space: pre; opacity: 1;" transform="translate(0,331.9)">200</text></g><g class="ytick"><text text-anchor="end" x="79" y="4.199999999999999" style="font-family: 'Times New Roman'; font-size: 12px; fill: rgb(42, 63, 95); fill-opacity: 1; white-space: pre; opacity: 1;" transform="translate(0,280.77)">400</text></g><g class="ytick"><text text-anchor="end" x="79" y="4.199999999999999" style="font-family: 'Times New Roman'; font-size: 12px; fill: rgb(42, 63, 95); fill-opacity: 1; white-space: pre; opacity: 1;" transform="translate(0,229.64)">600</text></g><g class="ytick"><text text-anchor="end" x="79" y="4.199999999999999" style="font-family: 'Times New Roman'; font-size: 12px; fill: rgb(42, 63, 95); fill-opacity: 1; white-space: pre; opacity: 1;" transform="translate(0,178.51)">800</text></g><g class="ytick"><text text-anchor="end" x="79" y="4.199999999999999" style="font-family: 'Times New Roman'; font-size: 12px; fill: rgb(42, 63, 95); fill-opacity: 1; white-space: pre; opacity: 1;" transform="translate(0,127.38)">1000</text></g></g><g class="overaxes-above"/></g></g><g class="polarlayer"/><g class="smithlayer"/><g class="ternarylayer"/><g class="geolayer"/><g class="funnelarealayer"/><g class="pielayer"/><g class="iciclelayer"/><g class="treemaplayer"/><g class="sunburstlayer"/><g class="glimages"/><defs id="topdefs-0880ef"><g class="clips"/></defs><g class="layer-above"><g class="imagelayer"/><g class="shapelayer"/></g><g class="infolayer"><g class="g-gtitle"><text class="gtitle" x="35" y="50" text-anchor="start" dy="0em" style="opacity: 1; font-family: 'Times New Roman'; font-size: 19px; fill: rgb(184, 134, 11); fill-opacity: 1; white-space: pre;">Job Posting Trends Over Time</text></g><g class="g-xtitle"><text class="xtitle" x="350" y="487.3" text-anchor="middle" style="opacity: 1; font-family: 'Times New Roman'; font-size: 14px; fill: rgb(42, 63, 95); fill-opacity: 1; white-space: pre;">Posted Date</text></g><g class="g-ytitle"><text class="ytitle" transform="rotate(-90,27.6,246)" x="27.6" y="246" text-anchor="middle" style="opacity: 1; font-family: 'Times New Roman'; font-size: 14px; fill: rgb(42, 63, 95); fill-opacity: 1; white-space: pre;">Number of Job Postings</text></g></g></svg>