<svg class="main-svg" xmlns="http://www.w3.org/2000/svg" xmlns:xlink="http://www.w3.org/1999/xlink" width="700" height="500" style="" viewBox="0 0 700 500"><rect x="0" y="0" width="700" height="500" style="fill: rgb(248, 249, 249); fill-opacity: 1;"/><defs id="defs-17fcf6"><g class="clips"/><g class="gradients"/><g class="patterns"/></defs><g class="bglayer"/><g class="layer-below"><g class="imagelayer"/><g class="shapelayer"/></g><g class="cartesianlayer"/><g class="polarlayer"/><g class="smithlayer"/><g class="ternarylayer"/><g class="geolayer"/><g class="funnelarealayer"/><g class="pielayer"/><g class="iciclelayer"/><g class="treemaplayer"/><g class="sunburstlayer"/><g class="glimages"/><g class="sankey" transform="translate(80,100)matrix(1 0 0 1 0 0)" style="box-sizing: content-box; position: absolute; left: 0px; shape-rendering: geometricprecision; pointer-events: none;"><g class="sankey-links" style="fill: none;"><path class="sankey-link" d="M 35.05553256641562 288.3014987040624  L 30.05553256641562 288.3014987040624 A 10.104090302906165 10.104090302906165 0 0 0 19.951442263509456 298.4055890069685 L 19.951442263509456 303.40558900696846 A 10.104090302906165 10.104090302906165 0 0 0 30.05553256641562 313.50967930987457 L 60.05553256641562 313.50967930987457 A 10.104090302906165 10.104090302906165 0 0 0 70.1596228693218 303.40558900696846 L 70.1596228693218 298.4055890069685 A 10.104090302906165 10.104090302906165 0 0 0 60.05553256641562 288.3014987040624 L 55.05553256641562 288.3014987040624 L 55.05553256641562 288.4055890069685 L 60.05553256641562 288.4055890069685 A 10 10 0 0 1 70.05553256641562 298.4055890069685 L 70.05553256641562 303.40558900696846 A 10 10 0 0 1 60.05553256641562 313.40558900696846 L 30.05553256641562 313.40558900696846 A 10 10 0 0 1 20.05553256641562 303.40558900696846 L 20.05553256641562 298.4055890069685 A 10 10 0 0 1 30.05553256641562 288.4055890069685 L 35.05553256641562 288.4055890069685Z" style="stroke: rgb(189, 195, 199); stroke-opacity: 1; fill: rgb(189, 195, 199); fill-opacity: 1; stroke-width: 1; opacity: 1;"/><path class="sankey-link" d="M55.05553256641562,-1.4210854715202004e-14C287.5277662832078,-1.4210854715202004e-14 287.5277662832078,5.684341886080802e-14 520,5.684341886080802e-14L520,171.40360924461834C287.5277662832078,171.40360924461834 287.5277662832078,171.40360924461828 55.05553256641562,171.40360924461828Z" style="stroke: rgb(68, 68, 68); stroke-opacity: 1; fill: rgb(189, 195, 199); fill-opacity: 1; stroke-width: 0; opacity: 1;"/></g><g class="sankey-node-set" style="cursor: move;"><g class="sankey-node" transform="translate(35.056,288.301)" style="opacity: 1;"><rect class="node-rect" width="20" height="0.5" style="stroke-width: 0.5; stroke: rgb(0, 0, 0); stroke-opacity: 1; fill: rgb(255, 87, 51); fill-opacity: 1;"/><text class="node-label" data-notex="1" x="0" y="0" text-anchor="start" transform="translate(23.25,5.85)" style="cursor: default; font-family: 'Times New Roman'; font-size: 16px; fill: rgb(0, 0, 0); fill-opacity: 1; text-shadow: rgb(255, 255, 255) 1px 1px 1px, rgb(255, 255, 255) -1px -1px 1px, rgb(255, 255, 255) 1px -1px 1px, rgb(255, 255, 255) -1px 1px 1px; white-space: pre;"></text></g><g class="sankey-node" transform="translate(35.056,0.000)" style="opacity: 1;"><rect class="node-rect" width="20" height="171.40360924461842" style="stroke-width: 0.5; stroke: rgb(0, 0, 0); stroke-opacity: 1; fill: rgb(52, 152, 219); fill-opacity: 1;"/><text class="node-label" data-notex="1" x="0" y="0" text-anchor="start" transform="translate(23.25,91.3018046223092)" style="cursor: default; font-family: 'Times New Roman'; font-size: 16px; fill: rgb(0, 0, 0); fill-opacity: 1; text-shadow: rgb(255, 255, 255) 1px 1px 1px, rgb(255, 255, 255) -1px -1px 1px, rgb(255, 255, 255) 1px -1px 1px, rgb(255, 255, 255) -1px 1px 1px; white-space: pre;">Computer and Mathematical Occupations</text></g><g class="sankey-node" transform="translate(520.000,0.000)" style="opacity: 1;"><rect class="node-rect" width="20" height="171.4036092446183" style="stroke-width: 0.5; stroke: rgb(0, 0, 0); stroke-opacity: 1; fill: rgb(255, 87, 51); fill-opacity: 1;"/><text class="node-label" data-notex="1" x="0" y="0" text-anchor="end" transform="translate(-3.25,91.30180462230915)" style="cursor: default; font-family: 'Times New Roman'; font-size: 16px; fill: rgb(0, 0, 0); fill-opacity: 1; text-shadow: rgb(255, 255, 255) 1px 1px 1px, rgb(255, 255, 255) -1px -1px 1px, rgb(255, 255, 255) 1px -1px 1px, rgb(255, 255, 255) -1px 1px 1px; white-space: pre;">Mathematical Science Occupations</text></g></g></g><defs id="topdefs-17fcf6"><g class="clips"/></defs><g class="layer-above"><g class="imagelayer"/><g class="shapelayer"/></g><g class="infolayer"><g class="g-gtitle"><text class="gtitle" x="35" y="50" text-anchor="start" dy="0em" style="opacity: 1; font-family: 'Times New Roman'; font-size: 22px; fill: rgb(0, 0, 0); fill-opacity: 1; white-space: pre;">Career Pathway Trends (Sankey Diagram)</text></g><g class="first-render"/></g></svg>